<svg id="Layer_1" xmlns="http://www.w3.org/2000/svg" viewBox="0 0 32 32"><style>.st0{fill:#171617;stroke:#171617;stroke-width:.5}</style><path class="st0" d="M16.6 1c-2.8 0-5 2.2-5 5v2.1h-4c-.2 0-.3.2-.4.3L5.5 30c0 .2.1.4.4.4h21.5c.2 0 .4-.2.4-.4L25.9 8.5c0-.2-.2-.3-.4-.3h-3.9V6c0-2.8-2.2-5-5-5zm0 .7c2.4 0 4.3 1.9 4.3 4.3v2.1h-8.6V6c0-2.4 1.9-4.3 4.3-4.3zM8 8.9h3.6V11c-.8.2-1.4.9-1.4 1.8 0 1 .8 1.8 1.8 1.8s1.8-.8 1.8-1.8c0-.9-.6-1.6-1.4-1.8V8.9H21V11c-.8.2-1.4.9-1.4 1.8 0 1 .8 1.8 1.8 1.8s1.8-.8 1.8-1.8c0-.9-.6-1.6-1.4-1.8V8.9h3.6l1.7 20.8H6.2L8 8.9zm3.9 2.8c.6 0 1.1.5 1.1 1.1 0 .6-.5 1.1-1.1 1.1-.6 0-1.1-.5-1.1-1.1 0-.6.5-1.1 1.1-1.1zm9.3 0c.6 0 1.1.5 1.1 1.1 0 .6-.5 1.1-1.1 1.1-.6 0-1.1-.5-1.1-1.1.1-.6.5-1.1 1.1-1.1z"/></svg>