<svg xmlns="http://www.w3.org/2000/svg" width="127" height="131" viewBox="0 0 127 131"><g fill="none" opacity=".05"><path fill="#000" d="M0 14.291c.524-.653 1.047-1.176 1.44-1.83C3.928 7.364 7.463 3.574 12.962 1.483 15.188.568 17.413.438 19.639.438c29.066 0 58.263.13 87.329-.131 11.129-.13 19.64 9.54 19.901 19.212v89.655c0 7.32-2.618 13.33-8.772 17.644-3.142 2.222-6.677 3.267-10.474 3.398-2.88.13-5.761.13-8.642.392-1.833.13-3.01-.654-4.058-2.222-5.761-8.626-11.653-17.251-17.414-25.877-1.44-2.091-3.011-3.137-5.63-3.137-4.844.262-9.82 0-14.664 0-.916 0-1.702.131-3.142.262v29.798c-.916.392-1.31.653-1.702.653-11.522 0-22.912.392-34.434 0-7.856-.392-13.355-4.966-16.628-12.154-.262-.654-.916-1.046-1.309-1.569V14.292zm81.96 5.75v31.367c2.227.784 4.06 1.176 5.762 2.091 8.903 4.705 14.009 12.024 13.747 22.218-.262 10.063-5.237 17.251-14.402 21.564-.916.392-1.702 1.046-2.75 1.569l.917 1.83c3.797 5.488 7.725 10.847 11.26 16.597 2.226 3.79 4.844 5.75 9.296 4.967 2.095-.393 4.582-.393 6.415-1.307 4.844-2.353 6.677-6.404 6.677-11.763-.13-16.86 0-33.719 0-50.578 0-12.677-.13-25.224 0-37.901 0-8.234-5.63-12.677-12.438-12.808a9486.51 9486.51 0 0 0-86.02 0c-2.487 0-5.105.915-7.2 2.091-4.32 2.483-5.5 6.927-5.5 11.632v86.388c0 1.176 0 2.483.263 3.66 1.047 6.273 5.76 10.193 12.045 10.193h22.781c1.048 0 2.095-.26 3.143-.392.13-1.045.262-1.96.262-2.744V58.073c0-1.307-.393-2.744-1.048-3.66-3.666-5.619-7.463-11.239-11.26-16.859-.392-.522-1.047-.914-1.57-1.437-.263.13-.394.261-.655.261v41.299c0 6.796.13 13.592-.131 20.65h-7.332c-1.048-2.876-.786-76.717.13-78.547 4.583-1.307 6.154-.784 8.773 3.006 4.19 6.143 8.38 12.285 12.438 18.428 2.226 3.136 4.32 6.404 6.415 9.28h21.865c.131-1.308.262-2.353.262-3.399V22.786c0-1.176.393-2.222.655-3.398 2.487.654 4.451.654 7.2.654zM57.609 59.25c.393.784.524 1.176.786 1.568 6.415 9.41 12.83 18.82 19.115 28.23 1.179 1.83 2.619 2.221 4.583 1.699 10.081-2.876 14.795-15.292 9.165-24.048-3.273-5.228-8.118-7.71-14.271-7.842-5.5-.13-10.998 0-16.628 0-.786.131-1.571.262-2.75.393zm11.13 32.02c.261-.262.392-.523.654-.785-4.714-7.057-9.558-14.115-14.402-21.303-1.179 1.96-1.179 19.735-.262 22.087h14.01z"/><path fill="#FFF" d="M81.96 20.042h-7.2c-.262 1.176-.655 2.221-.655 3.398v24.309c0 1.045-.13 2.09-.262 3.398H51.978c-2.094-3.006-4.19-6.143-6.415-9.28-4.19-6.142-8.249-12.285-12.438-18.427-2.619-3.79-4.19-4.313-8.772-3.006-.917 1.83-1.179 75.54-.131 78.546h7.332c.13-7.057 0-13.853.13-20.65V37.033c.262-.131.393-.262.655-.262.524.523 1.31.784 1.571 1.438 3.797 5.62 7.594 11.24 11.26 16.86.655 1.045 1.048 2.482 1.048 3.659v60.641c0 .784-.131 1.569-.262 2.745-1.179.13-2.226.392-3.143.392H20.032c-6.416 0-10.998-3.92-12.045-10.194-.262-1.176-.262-2.483-.262-3.66V22.263c0-4.835 1.178-9.148 5.499-11.631 2.095-1.177 4.844-2.091 7.2-2.091 28.674-.131 57.347-.131 86.02 0 6.809 0 12.57 4.574 12.438 12.808-.13 12.677 0 25.223 0 37.9 0 16.86-.13 33.72 0 50.579 0 5.358-1.833 9.41-6.677 11.762-1.964.915-4.32.915-6.415 1.307-4.452.915-7.07-1.176-9.296-4.966-3.404-5.75-7.463-11.11-11.26-16.598l-.916-1.83c.916-.523 1.833-1.176 2.749-1.568 9.165-4.313 14.14-11.501 14.402-21.565.262-10.324-4.975-17.513-13.747-22.218-1.702-.914-3.535-1.306-5.761-2.09v-32.02z"/><path fill="#FFF" d="M57.608 59.25c1.048-.131 1.964-.262 2.75-.262 5.499 0 10.998-.13 16.628 0 6.153.13 10.998 2.614 14.27 7.842 5.63 8.756.917 21.172-9.164 24.047-1.964.523-3.404.13-4.583-1.699-6.284-9.41-12.7-18.82-19.115-28.23-.131-.392-.393-.914-.786-1.698zm11.129 32.02h-14.01c-.916-2.353-.916-20.127.263-22.088 4.844 7.188 9.688 14.246 14.402 21.303-.262.262-.393.523-.655.784z"/></g></svg>